<svg width="111" height="298" viewBox="0 0 111 298" fill="none" xmlns="http://www.w3.org/2000/svg">
<path d="M4.1372 258.206C4.04034 247.107 6.1556 237.388 10.483 229.05C14.8104 220.712 20.9543 214.258 28.9147 209.688C36.7743 205.019 45.9039 202.64 56.3035 202.549C66.6031 202.459 75.7728 204.679 83.8126 209.209C91.8516 213.639 98.1076 220.035 102.581 228.396C107.053 236.657 109.337 246.288 109.433 257.287L109.777 296.736L4.48146 297.655L4.1372 258.206ZM87.2484 259.131C87.1637 249.431 84.448 241.905 79.101 236.551C73.7541 231.198 66.2309 228.563 56.5312 228.648C46.8316 228.733 39.3055 231.498 33.9528 236.945C28.6001 242.392 25.9661 249.965 26.0507 259.665L26.1568 271.815L87.3544 271.281L87.2484 259.131ZM2.86937 112.927L23.4186 112.748L23.6621 140.647L108.409 139.908L108.633 165.557L23.8859 166.296L24.1294 194.195L3.58015 194.374L2.86937 112.927ZM55.293 103.947C44.8934 104.037 35.6241 101.868 27.4851 97.439C19.2462 93.0108 12.8419 86.8164 8.27225 78.856C3.60174 70.7965 1.22198 61.6669 1.13297 51.4673C1.02389 38.9678 4.23039 28.2394 10.7525 19.2821C17.2745 10.3249 26.2223 4.29657 37.5957 1.1972L37.8417 29.3961C33.4602 31.5344 30.1366 34.5635 27.8707 38.4835C25.6039 42.3034 24.4919 46.6633 24.5347 51.5631C24.6036 59.4628 27.4094 65.8385 32.9519 70.6903C38.4945 75.5422 45.8656 77.9279 55.0652 77.8476C64.2649 77.7673 71.5932 75.2533 77.0502 70.3055C82.5072 65.3577 85.2013 58.9339 85.1323 51.0342C85.0896 46.1344 83.9017 41.7946 81.5686 38.0149C79.2347 34.1351 75.8586 31.1644 71.4404 29.1029L71.1944 0.903989C82.6201 3.80439 91.6717 9.67563 98.3491 18.5177C104.927 27.3606 108.27 38.0318 108.379 50.5314C108.468 60.731 106.298 69.9003 101.869 78.0392C97.3386 86.079 91.0434 92.3842 82.983 96.9547C74.9226 101.525 65.6926 103.856 55.293 103.947Z" fill="#5867B7" />
<path d="M10.483 229.05L9.59542 228.589L10.483 229.05ZM28.9147 209.688L29.4126 210.555L29.419 210.552L29.4254 210.548L28.9147 209.688ZM83.8126 209.209L83.3217 210.08L83.33 210.085L83.8126 209.209ZM102.581 228.396L101.699 228.868L101.701 228.872L102.581 228.396ZM109.777 296.736L109.786 297.736L110.786 297.727L110.777 296.727L109.777 296.736ZM4.48146 297.655L3.4815 297.663L3.49023 298.663L4.49019 298.655L4.48146 297.655ZM26.1568 271.815L25.1568 271.823L25.1655 272.823L26.1655 272.815L26.1568 271.815ZM87.3544 271.281L87.3632 272.281L88.3631 272.272L88.3544 271.272L87.3544 271.281ZM5.13716 258.198C5.04147 247.232 7.13096 237.679 11.3706 229.51L9.59542 228.589C5.18025 237.096 3.03921 246.982 3.13724 258.215L5.13716 258.198ZM11.3706 229.51C15.6119 221.338 21.6224 215.027 29.4126 210.555L28.4169 208.821C20.2862 213.488 14.0089 220.085 9.59542 228.589L11.3706 229.51ZM29.4254 210.548C37.113 205.981 46.0646 203.638 56.3122 203.549L56.2947 201.549C45.7431 201.641 36.4355 204.058 28.404 208.828L29.4254 210.548ZM56.3122 203.549C66.4576 203.46 75.4514 205.646 83.3217 210.08L84.3035 208.338C76.0941 203.712 66.7485 201.458 56.2947 201.549L56.3122 203.549ZM83.33 210.085C91.1938 214.418 97.3139 220.671 101.699 228.868L103.463 227.924C98.9014 219.399 92.5093 212.86 84.2952 208.333L83.33 210.085ZM101.701 228.872C106.084 236.967 108.338 246.432 108.433 257.296L110.433 257.279C110.336 246.144 108.022 236.348 103.46 227.92L101.701 228.872ZM108.433 257.296L108.777 296.745L110.777 296.727L110.433 257.279L108.433 257.296ZM109.769 295.736L4.47274 296.655L4.49019 298.655L109.786 297.736L109.769 295.736ZM5.48142 297.646L5.13716 258.198L3.13724 258.215L3.4815 297.663L5.48142 297.646ZM88.2484 259.122C88.1621 249.238 85.3888 241.432 79.8086 235.845L78.3935 237.258C83.5071 242.378 86.1654 249.625 86.2484 259.14L88.2484 259.122ZM79.8086 235.845C74.2223 230.251 66.4111 227.562 56.5225 227.648L56.54 229.648C66.0506 229.565 73.2859 232.144 78.3935 237.258L79.8086 235.845ZM56.5225 227.648C46.6329 227.734 38.8249 230.561 33.2395 236.244L34.666 237.646C39.786 232.436 47.0303 229.731 56.54 229.648L56.5225 227.648ZM33.2395 236.244C27.6541 241.928 24.9645 249.784 25.0508 259.674L27.0507 259.656C26.9677 250.147 29.5461 242.856 34.666 237.646L33.2395 236.244ZM25.0508 259.674L25.1568 271.823L27.1567 271.806L27.0507 259.656L25.0508 259.674ZM26.1655 272.815L87.3632 272.281L87.3457 270.281L26.148 270.815L26.1655 272.815ZM88.3544 271.272L88.2484 259.122L86.2484 259.14L86.3545 271.289L88.3544 271.272ZM2.86937 112.927L2.86065 111.928L1.86069 111.936L1.86941 112.936L2.86937 112.927ZM23.4186 112.748L24.4185 112.739L24.4098 111.739L23.4099 111.748L23.4186 112.748ZM23.6621 140.647L22.6621 140.656L22.6708 141.656L23.6708 141.647L23.6621 140.647ZM108.409 139.907L109.409 139.899L109.4 138.899L108.4 138.908L108.409 139.907ZM108.633 165.557L108.641 166.556L109.641 166.548L109.633 165.548L108.633 165.557ZM23.8859 166.296L23.8772 165.296L22.8772 165.305L22.8859 166.305L23.8859 166.296ZM24.1294 194.195L24.1381 195.195L25.138 195.186L25.1293 194.186L24.1294 194.195ZM3.58015 194.374L2.58019 194.383L2.58891 195.383L3.58888 195.374L3.58015 194.374ZM2.8781 113.927L23.4273 113.748L23.4099 111.748L2.86065 111.928L2.8781 113.927ZM22.4186 112.757L22.6621 140.656L24.662 140.638L24.4185 112.739L22.4186 112.757ZM23.6708 141.647L108.418 140.907L108.4 138.908L23.6533 139.647L23.6708 141.647ZM107.409 139.916L107.633 165.565L109.633 165.548L109.409 139.899L107.409 139.916ZM108.624 164.557L23.8772 165.296L23.8946 167.296L108.641 166.556L108.624 164.557ZM22.8859 166.305L23.1294 194.204L25.1293 194.186L24.8858 166.287L22.8859 166.305ZM24.1206 193.195L3.57142 193.374L3.58888 195.374L24.1381 195.195L24.1206 193.195ZM4.58011 194.366L3.86933 112.919L1.86941 112.936L2.58019 194.383L4.58011 194.366ZM27.4851 97.4391L27.9631 96.5607L27.9586 96.5582L27.4851 97.4391ZM8.27225 78.856L9.13952 78.3582L9.13746 78.3546L8.27225 78.856ZM10.7525 19.2821L9.94406 18.6935L10.7525 19.2821ZM37.5957 1.1972L38.5956 1.18847L38.5843 -0.108686L37.3327 0.232387L37.5957 1.1972ZM37.8417 29.3961L38.2803 30.2948L38.8472 30.0181L38.8417 29.3874L37.8417 29.3961ZM27.8707 38.4835L28.7307 38.9938L28.7364 38.9839L27.8707 38.4835ZM32.9519 70.6903L33.6106 69.9379L32.9519 70.6903ZM81.5686 38.0149L80.7117 38.5304L80.7177 38.5401L81.5686 38.0149ZM71.4405 29.1029L70.4405 29.1116L70.446 29.7424L71.0176 30.0091L71.4405 29.1029ZM71.1944 0.903989L71.4404 -0.0652657L70.1831 -0.384445L70.1944 0.912716L71.1944 0.903989ZM98.3491 18.5177L99.1515 17.9209L99.1471 17.915L98.3491 18.5177ZM101.869 78.0392L102.74 78.5301L102.743 78.5237L102.747 78.5172L101.869 78.0392ZM82.983 96.9547L82.4897 96.0848L82.983 96.9547ZM55.2842 102.947C45.0334 103.036 35.9353 100.899 27.9631 96.5607L27.0071 98.3174C35.3129 102.837 44.7533 105.039 55.3017 104.947L55.2842 102.947ZM27.9586 96.5582C19.8808 92.2166 13.6143 86.1534 9.13951 78.3582L7.40498 79.3539C12.0694 87.4794 18.6116 93.805 27.0117 98.3199L27.9586 96.5582ZM9.13746 78.3546C4.56186 70.4588 2.22058 61.5019 2.13293 51.4586L0.133007 51.476C0.223381 61.8319 2.64162 71.1341 7.40703 79.3574L9.13746 78.3546ZM2.13293 51.4586C2.02547 39.1448 5.181 28.6327 11.5609 19.8707L9.94406 18.6935C3.27977 27.8461 0.0223047 38.7907 0.133007 51.476L2.13293 51.4586ZM11.5609 19.8707C17.9403 11.1095 26.6894 5.20573 37.8586 2.16201L37.3327 0.232387C25.7551 3.3874 16.6088 9.54029 9.94406 18.6935L11.5609 19.8707ZM36.5957 1.20593L36.8418 29.4049L38.8417 29.3874L38.5956 1.18847L36.5957 1.20593ZM37.4032 28.4974C32.8572 30.716 29.3781 33.8774 27.0049 37.983L28.7364 38.9839C30.895 35.2497 34.0633 32.3529 38.2803 30.2948L37.4032 28.4974ZM27.0107 37.9731C24.6413 41.966 23.4905 46.5088 23.5347 51.5718L25.5346 51.5543C25.4933 46.8177 26.5665 42.6408 28.7307 38.9938L27.0107 37.9731ZM23.5347 51.5718C23.6059 59.7334 26.5191 66.3883 32.2933 71.4428L33.6106 69.9379C28.2996 65.2888 25.6013 59.1921 25.5346 51.5543L23.5347 51.5718ZM32.2933 71.4428C38.0631 76.4936 45.6924 78.9295 55.0739 78.8476L55.0565 76.8477C46.0387 76.9264 38.9258 74.5908 33.6106 69.9379L32.2933 71.4428ZM55.0739 78.8476C64.4555 78.7657 72.0411 76.197 77.7219 71.0463L76.3785 69.5647C71.1453 74.3096 64.0743 76.769 55.0565 76.8477L55.0739 78.8476ZM77.7219 71.0463C83.4069 65.8918 86.2035 59.1871 86.1323 51.0255L84.1324 51.043C84.199 58.6807 81.6076 64.8236 76.3785 69.5647L77.7219 71.0463ZM86.1323 51.0255C86.0881 45.9626 84.8582 41.4404 82.4196 37.4896L80.7177 38.5401C82.9451 42.1488 84.0911 46.3063 84.1324 51.043L86.1323 51.0255ZM82.4255 37.4994C79.981 33.4358 76.4473 30.3356 71.8633 28.1967L71.0176 30.0091C75.27 31.9932 78.4883 34.8343 80.7117 38.5303L82.4255 37.4994ZM72.4404 29.0942L72.1943 0.895263L70.1944 0.912716L70.4405 29.1116L72.4404 29.0942ZM70.9483 1.87324C82.1689 4.72157 91.0198 10.4717 97.5511 19.1203L99.1471 17.915C92.3236 8.87954 83.0713 2.88721 71.4404 -0.0652657L70.9483 1.87324ZM97.5467 19.1145C103.981 27.7649 107.271 38.2229 107.379 50.5401L109.379 50.5226C109.268 37.8408 105.872 26.9563 99.1515 17.9209L97.5467 19.1145ZM107.379 50.5401C107.467 60.5873 105.33 69.5862 100.99 77.5612L102.747 78.5172C107.265 70.2143 109.469 60.8746 109.379 50.5226L107.379 50.5401ZM100.997 77.5483C96.557 85.4291 90.3928 91.6036 82.4897 96.0848L83.4762 97.8246C91.6941 93.1649 98.1202 86.7289 102.74 78.5301L100.997 77.5483ZM82.4897 96.0848C74.5945 100.562 65.5351 102.857 55.2842 102.947L55.3017 104.947C65.8501 104.855 75.2506 102.489 83.4762 97.8246L82.4897 96.0848Z" fill="black"/>
</svg>