<svg className='logo_svg' width="121" height="103" viewBox="0 0 121 103" fill="none"
                      xmlns="http://www.w3.org/2000/svg">
                      <path
                          d="M60.9411 2.44526L110.336 26.7209C110.678 26.889 110.895 27.2371 110.895 27.6183V75.3817C110.895 75.7629 110.678 76.111 110.336 76.2791L60.9411 100.555C60.6629 100.691 60.3371 100.691 60.0589 100.555L10.6644 76.2791C10.3222 76.111 10.1055 75.7629 10.1055 75.3817V27.6183C10.1055 27.2371 10.3222 26.889 10.6644 26.7209L60.0589 2.44526C60.3371 2.30855 60.6629 2.30855 60.9411 2.44526Z"
                          stroke="#CCD6F6" stroke-width="4" />
                      <path d="M78.42 28.21V33.39H65.12V77H58.75V33.39H45.38V28.21H78.42Z" fill="#CCD6F6" />
                      <path
                          d="M32.7 31.15C36.5 31.15 39.7833 31.8667 42.55 33.3C45.35 34.7 47.4833 36.7167 48.95 39.35C50.45 41.9833 51.2 45.0833 51.2 48.65C51.2 52.2167 50.45 55.3167 48.95 57.95C47.4833 60.55 45.35 62.55 42.55 63.95C39.7833 65.3167 36.5 66 32.7 66H21.85V31.15H32.7ZM32.7 62.25C37.2 62.25 40.6333 61.0667 43 58.7C45.3667 56.3 46.55 52.95 46.55 48.65C46.55 44.3167 45.35 40.9333 42.95 38.5C40.5833 36.0667 37.1667 34.85 32.7 34.85H26.4V62.25H32.7Z"
                          fill="#CCD6F6" />
                      <path
                          d="M71.15 48.55C71.15 45.15 71.9167 42.1 73.45 39.4C74.9833 36.6667 77.0667 34.5333 79.7 33C82.3667 31.4667 85.3167 30.7 88.55 30.7C92.35 30.7 95.6667 31.6167 98.5 33.45C101.333 35.2833 103.4 37.8833 104.7 41.25H99.25C98.2833 39.15 96.8833 37.5333 95.05 36.4C93.25 35.2667 91.0833 34.7 88.55 34.7C86.1167 34.7 83.9333 35.2667 82 36.4C80.0667 37.5333 78.55 39.15 77.45 41.25C76.35 43.3167 75.8 45.75 75.8 48.55C75.8 51.3167 76.35 53.75 77.45 55.85C78.55 57.9167 80.0667 59.5167 82 60.65C83.9333 61.7833 86.1167 62.35 88.55 62.35C91.0833 62.35 93.25 61.8 95.05 60.7C96.8833 59.5667 98.2833 57.95 99.25 55.85H104.7C103.4 59.1833 101.333 61.7667 98.5 63.6C95.6667 65.4 92.35 66.3 88.55 66.3C85.3167 66.3 82.3667 65.55 79.7 64.05C77.0667 62.5167 74.9833 60.4 73.45 57.7C71.9167 55 71.15 51.95 71.15 48.55Z"
                          fill="#CCD6F6" />
                      <line x1="-4.88937e-10" y1="49.5" x2="121" y2="49.5" stroke="#CCD6F6" stroke-width="3" />
                  </svg>