<svg width="227" height="86" viewBox="0 0 227 86" fill="none" xmlns="http://www.w3.org/2000/svg">
<path d="M26.28 1.36C35.4 1.36 43.28 3.08 49.92 6.51999C56.64 9.87999 61.76 14.72 65.28 21.04C68.88 27.36 70.68 34.8 70.68 43.36C70.68 51.92 68.88 59.36 65.28 65.68C61.76 71.92 56.64 76.72 49.92 80.08C43.28 83.36 35.4 85 26.28 85H0.240001V1.36H26.28ZM26.28 76C37.08 76 45.32 73.16 51 67.48C56.68 61.72 59.52 53.68 59.52 43.36C59.52 32.96 56.64 24.84 50.88 19C45.2 13.16 37 10.24 26.28 10.24H11.16V76H26.28ZM136.564 1.36V10.24H113.764V85H102.844V10.24H79.9238V1.36H136.564ZM145.926 43.12C145.926 34.96 147.766 27.64 151.446 21.16C155.126 14.6 160.126 9.48 166.446 5.8C172.846 2.12 179.926 0.279996 187.686 0.279996C196.806 0.279996 204.766 2.48 211.566 6.88C218.366 11.28 223.326 17.52 226.446 25.6H213.366C211.046 20.56 207.686 16.68 203.286 13.96C198.966 11.24 193.766 9.87999 187.686 9.87999C181.846 9.87999 176.606 11.24 171.966 13.96C167.326 16.68 163.686 20.56 161.046 25.6C158.406 30.56 157.086 36.4 157.086 43.12C157.086 49.76 158.406 55.6 161.046 60.64C163.686 65.6 167.326 69.44 171.966 72.16C176.606 74.88 181.846 76.24 187.686 76.24C193.766 76.24 198.966 74.92 203.286 72.28C207.686 69.56 211.046 65.68 213.366 60.64H226.446C223.326 68.64 218.366 74.84 211.566 79.24C204.766 83.56 196.806 85.72 187.686 85.72C179.926 85.72 172.846 83.92 166.446 80.32C160.126 76.64 155.126 71.56 151.446 65.08C147.766 58.6 145.926 51.28 145.926 43.12Z" fill="#5C74C4" fill-opacity="0.87"/>
<path d="M49.92 6.51999L46.24 13.6233L46.2909 13.6497L46.3423 13.6754L49.92 6.51999ZM65.28 21.04L58.2909 24.9326L58.3096 24.9662L58.3286 24.9996L65.28 21.04ZM65.28 65.68L58.3286 61.7204L58.3204 61.7349L58.3122 61.7494L65.28 65.68ZM49.92 80.08L53.4631 87.2526L53.4804 87.2441L53.4977 87.2354L49.92 80.08ZM0.240001 85H-7.76V93H0.240001V85ZM0.240001 1.36V-6.64H-7.76V1.36H0.240001ZM51 67.48L56.6569 73.1369L56.6766 73.1171L56.6963 73.0972L51 67.48ZM50.88 19L45.1451 24.5777L45.1646 24.5978L45.1843 24.6177L50.88 19ZM11.16 10.24V2.24H3.16V10.24H11.16ZM11.16 76H3.16V84H11.16V76ZM26.28 9.36C34.3968 9.36 40.9604 10.8882 46.24 13.6233L53.6 -0.583337C45.5996 -4.72816 36.4032 -6.64 26.28 -6.64V9.36ZM46.3423 13.6754C51.6818 16.3451 55.5854 20.075 58.2909 24.9326L72.2691 17.1473C67.9346 9.36494 61.5982 3.41484 53.4977 -0.635423L46.3423 13.6754ZM58.3286 24.9996C61.1287 29.9152 62.68 35.9415 62.68 43.36H78.68C78.68 33.6585 76.6313 24.8048 72.2314 17.0804L58.3286 24.9996ZM62.68 43.36C62.68 50.7785 61.1287 56.8048 58.3286 61.7204L72.2314 69.6396C76.6313 61.9152 78.68 53.0615 78.68 43.36H62.68ZM58.3122 61.7494C55.6149 66.5309 51.7095 70.241 46.3423 72.9246L53.4977 87.2354C61.5705 83.199 67.9051 77.3091 72.2478 69.6106L58.3122 61.7494ZM46.3769 72.9074C41.0642 75.5317 34.4501 77 26.28 77V93C36.3499 93 45.4958 91.1883 53.4631 87.2526L46.3769 72.9074ZM26.28 77H0.240001V93H26.28V77ZM8.24 85V1.36H-7.76V85H8.24ZM0.240001 9.36H26.28V-6.64H0.240001V9.36ZM26.28 84C38.4488 84 49.017 80.7767 56.6569 73.1369L45.3431 61.8231C41.623 65.5433 35.7112 68 26.28 68V84ZM56.6963 73.0972C64.2299 65.4575 67.52 55.1755 67.52 43.36H51.52C51.52 52.1845 49.1301 57.9825 45.3037 61.8628L56.6963 73.0972ZM67.52 43.36C67.52 31.4483 64.1809 21.0931 56.5757 13.3823L45.1843 24.6177C49.0991 28.5869 51.52 34.4717 51.52 43.36H67.52ZM56.6149 13.4223C48.996 5.58877 38.4489 2.24 26.28 2.24V18.24C35.5511 18.24 41.404 20.7312 45.1451 24.5777L56.6149 13.4223ZM26.28 2.24H11.16V18.24H26.28V2.24ZM3.16 10.24V76H19.16V10.24H3.16ZM11.16 84H26.28V68H11.16V84ZM136.564 1.36H144.564V-6.64H136.564V1.36ZM136.564 10.24V18.24H144.564V10.24H136.564ZM113.764 10.24V2.24H105.764V10.24H113.764ZM113.764 85V93H121.764V85H113.764ZM102.844 85H94.8438V93H102.844V85ZM102.844 10.24H110.844V2.24H102.844V10.24ZM79.9238 10.24H71.9238V18.24H79.9238V10.24ZM79.9238 1.36V-6.64H71.9238V1.36H79.9238ZM128.564 1.36V10.24H144.564V1.36H128.564ZM136.564 2.24H113.764V18.24H136.564V2.24ZM105.764 10.24V85H121.764V10.24H105.764ZM113.764 77H102.844V93H113.764V77ZM110.844 85V10.24H94.8438V85H110.844ZM102.844 2.24H79.9238V18.24H102.844V2.24ZM87.9238 10.24V1.36H71.9238V10.24H87.9238ZM79.9238 9.36H136.564V-6.64H79.9238V9.36ZM151.446 21.16L158.402 25.1106L158.412 25.0923L158.423 25.074L151.446 21.16ZM166.446 5.8L162.458 -1.13525L162.439 -1.12438L162.42 -1.11341L166.446 5.8ZM211.566 6.88L215.912 0.163437L215.912 0.163435L211.566 6.88ZM226.446 25.6V33.6H238.11L233.909 22.7183L226.446 25.6ZM213.366 25.6L206.099 28.9451L208.241 33.6H213.366V25.6ZM203.286 13.96L199.023 20.7299L199.051 20.7474L199.079 20.7648L203.286 13.96ZM171.966 13.96L176.011 20.8616L176.011 20.8616L171.966 13.96ZM161.046 25.6L168.108 29.3588L168.12 29.3355L168.132 29.3121L161.046 25.6ZM161.046 60.64L153.959 64.3521L153.971 64.3755L153.984 64.3988L161.046 60.64ZM171.966 72.16L176.011 65.2584L176.011 65.2584L171.966 72.16ZM203.286 72.28L207.457 79.1063L207.475 79.0956L207.492 79.0848L203.286 72.28ZM213.366 60.64V52.64H208.241L206.099 57.2949L213.366 60.64ZM226.446 60.64L233.899 63.5468L238.153 52.64H226.446V60.64ZM211.566 79.24L215.855 85.9926L215.884 85.9747L215.912 85.9566L211.566 79.24ZM166.446 80.32L162.42 87.2334L162.472 87.2634L162.524 87.2926L166.446 80.32ZM151.446 65.08L158.402 61.1294L151.446 65.08ZM153.926 43.12C153.926 36.2099 155.47 30.274 158.402 25.1106L144.489 17.2094C140.061 25.006 137.926 33.7101 137.926 43.12H153.926ZM158.423 25.074C161.425 19.7221 165.421 15.6538 170.471 12.7134L162.42 -1.11341C154.83 3.30623 148.826 9.47788 144.468 17.246L158.423 25.074ZM170.433 12.7352C175.557 9.78903 181.251 8.28 187.686 8.28V-7.72C178.601 -7.72 170.134 -5.54904 162.458 -1.13525L170.433 12.7352ZM187.686 8.28C195.464 8.28 201.873 10.1369 207.22 13.5966L215.912 0.163435C207.658 -5.17692 198.147 -7.72 187.686 -7.72V8.28ZM207.22 13.5966C212.501 17.014 216.426 21.8611 218.983 28.4817L233.909 22.7183C230.225 13.1789 224.23 5.54597 215.912 0.163437L207.22 13.5966ZM226.446 17.6H213.366V33.6H226.446V17.6ZM220.633 22.2548C217.705 15.8946 213.329 10.7632 207.492 7.15524L199.079 20.7648C202.043 22.5968 204.386 25.2254 206.099 28.9451L220.633 22.2548ZM207.548 7.19014C201.726 3.52416 194.983 1.87999 187.686 1.87999V17.88C192.549 17.88 196.206 18.9558 199.023 20.7299L207.548 7.19014ZM187.686 1.87999C180.549 1.87999 173.891 3.55801 167.92 7.05842L176.011 20.8616C179.32 18.922 183.142 17.88 187.686 17.88V1.87999ZM167.92 7.05841C161.912 10.5805 157.252 15.6013 153.959 21.8879L168.132 29.3121C170.119 25.5187 172.74 22.7795 176.011 20.8616L167.92 7.05841ZM153.984 21.8412C150.618 28.1648 149.086 35.3448 149.086 43.12H165.086C165.086 37.4551 166.193 32.9552 168.108 29.3588L153.984 21.8412ZM149.086 43.12C149.086 50.8366 150.626 57.9893 153.959 64.3521L168.132 56.9279C166.185 53.2107 165.086 48.6834 165.086 43.12H149.086ZM153.984 64.3988C157.286 70.604 161.945 75.5589 167.92 79.0616L176.011 65.2584C172.707 63.3211 170.085 60.596 168.108 56.8812L153.984 64.3988ZM167.92 79.0616C173.891 82.562 180.549 84.24 187.686 84.24V68.24C183.142 68.24 179.32 67.198 176.011 65.2584L167.92 79.0616ZM187.686 84.24C194.94 84.24 201.649 82.6554 207.457 79.1063L199.114 65.4537C196.282 67.1846 192.591 68.24 187.686 68.24V84.24ZM207.492 79.0848C213.329 75.4768 217.705 70.3454 220.633 63.9851L206.099 57.2949C204.386 61.0146 202.043 63.6432 199.079 65.4752L207.492 79.0848ZM213.366 68.64H226.446V52.64H213.366V68.64ZM218.992 57.7332C216.444 64.2686 212.522 69.0924 207.22 72.5234L215.912 85.9566C224.209 80.5876 230.208 73.0114 233.899 63.5468L218.992 57.7332ZM207.276 72.4874C201.922 75.8887 195.492 77.72 187.686 77.72V93.72C198.119 93.72 207.609 91.2313 215.855 85.9926L207.276 72.4874ZM187.686 77.72C181.219 77.72 175.502 76.2353 170.368 73.3474L162.524 87.2926C170.19 91.6047 178.633 93.72 187.686 93.72V77.72ZM170.471 73.4066C165.397 70.4519 161.398 66.4047 158.402 61.1294L144.489 69.0306C148.853 76.7153 154.854 82.8281 162.42 87.2334L170.471 73.4066ZM158.402 61.1294C155.47 55.966 153.926 50.0301 153.926 43.12H137.926C137.926 52.5299 140.061 61.234 144.489 69.0306L158.402 61.1294Z" fill="#5C74C4" fill-opacity="0.87"/>
</svg>
